<svg width="668" height="51" viewBox="0 0 668 51" fill="none" xmlns="http://www.w3.org/2000/svg">
<path d="M334 1.5C426.206 1.5 509.666 4.35397 570.06 8.96484C600.263 11.2708 624.66 14.0136 641.486 17.0508C649.911 18.5714 656.368 20.154 660.69 21.7666C662.86 22.5761 664.402 23.3608 665.374 24.0918C666.384 24.8509 666.5 25.3318 666.5 25.5C666.5 25.6682 666.384 26.1491 665.374 26.9082C664.402 27.6392 662.86 28.4239 660.69 29.2334C656.368 30.846 649.911 32.4286 641.486 33.9492C624.66 36.9864 600.263 39.7292 570.06 42.0352C509.666 46.646 426.206 49.5 334 49.5C241.794 49.5 158.334 46.646 97.9404 42.0352C67.7365 39.7292 43.3395 36.9864 26.5137 33.9492C18.0893 32.4286 11.6317 30.846 7.30957 29.2334C5.14011 28.4239 3.59836 27.6392 2.62598 26.9082C1.61627 26.1491 1.5 25.6682 1.5 25.5C1.5 25.3318 1.61627 24.8509 2.62598 24.0918C3.59836 23.3608 5.14011 22.5761 7.30957 21.7666C11.6317 20.154 18.0893 18.5714 26.5137 17.0508C43.3395 14.0136 67.7365 11.2708 97.9404 8.96484C158.334 4.35397 241.794 1.5 334 1.5Z" stroke="#AA7F2C" stroke-width="3"/>
</svg>
